<svg width="19" height="25" viewBox="0 0 19 25" fill="none" xmlns="http://www.w3.org/2000/svg">
<path fill-rule="evenodd" clip-rule="evenodd" d="M18.9503 10.0505C19.3457 7.42355 17.3336 6.01143 14.5823 5.06935L15.4748 1.51087L13.2958 0.971057L12.4269 4.43573C11.854 4.29386 11.2657 4.15999 10.681 4.02735L11.5561 0.539816L9.37833 0L8.48527 3.55723C8.01109 3.44988 7.54565 3.34379 7.09382 3.23212L7.09628 3.22101L4.09121 2.47513L3.51154 4.78864C3.51154 4.78864 5.12828 5.15692 5.09414 5.17977C5.9767 5.39877 6.13618 5.97932 6.10947 6.43955L5.09291 10.4934C5.15372 10.5089 5.23254 10.531 5.31944 10.5656L5.24295 10.5466C5.19323 10.5342 5.14173 10.5214 5.08918 10.5089L3.6642 16.1877C3.55621 16.4542 3.28252 16.854 2.66562 16.7022C2.68734 16.7337 1.08177 16.3093 1.08177 16.3093L0 18.7887L2.83566 19.4914C3.15246 19.5703 3.46545 19.6514 3.77517 19.7317L3.77578 19.7319C3.98161 19.7852 4.18599 19.8382 4.38909 19.8899L3.48733 23.4891L5.66389 24.0289L6.55699 20.468C7.15151 20.6284 7.72872 20.7765 8.2935 20.9159L7.40352 24.4602L9.58254 25L10.4843 21.4076C14.2 22.1066 16.9941 21.8246 18.1702 18.4839C19.1179 15.7941 18.123 14.2426 16.1681 13.2308C17.5918 12.9044 18.6642 11.9734 18.9503 10.0505ZM13.9716 16.9904C13.3538 19.4582 9.46787 18.4379 7.68986 17.9711C7.5299 17.9291 7.387 17.8916 7.26508 17.8615L8.46168 13.0932C8.61014 13.13 8.79152 13.1705 8.99699 13.2163C10.8359 13.6265 14.6047 14.4671 13.9716 16.9904ZM9.36641 11.0035C10.8488 11.3967 14.0824 12.2546 14.6456 10.0116C15.2208 7.71744 12.0782 7.02589 10.5434 6.68813C10.3707 6.65013 10.2183 6.6166 10.0939 6.58578L9.00906 10.9105C9.11151 10.9359 9.23173 10.9677 9.36641 11.0035Z" fill="#F7931A"/>
</svg>
