<svg width="24" height="24" viewBox="0 0 24 24" fill="none" xmlns="http://www.w3.org/2000/svg">
<path fill-rule="evenodd" clip-rule="evenodd" d="M7.57445 9.99762L11.9989 5.37711L16.4255 10L19 7.31144L11.9989 0L5 7.30906L7.57445 9.99762ZM0 12L3 9L6 12L3 15L0 12ZM12.0006 18.6229L7.57724 14.0024L5 16.6874L5.00342 16.6909L12.0006 24L19 16.6874L16.4262 14L12.0006 18.6229ZM18 12L21 9L24 12L21 15L18 12ZM15 12V11.9974H14.9974L12.0007 9L9.78448 11.2153L9.52953 11.4704L9.00523 11.9961L9 12L9.00523 12.0052L12.0007 15L15 12Z" fill="#F3BA2F"/>
</svg>
