<svg width="16" height="26" viewBox="0 0 16 26" fill="none" xmlns="http://www.w3.org/2000/svg">
<path d="M8 0.125C8 0.125 8 -0.125 8 0.125C8 0.375 8 0.685892 8 0.685892V16.9602L8.17111 17.125L16 12.75L8 0.125Z" fill="#343434"/>
<path d="M8 0.125L0 12.75L8 17.125V9.22589V0.125Z" fill="#8C8C8C"/>
<path d="M8.09728 18.7367L8 18.854V24.8443V25.125L16 14.125L8.09728 18.7367Z" fill="#3C3C3B"/>
<path d="M8 25.125V18.7367L0 14.125L8 25.125Z" fill="#8C8C8C"/>
<path d="M8 17.125L16 12.75L8 9.125V17.125Z" fill="#141414"/>
<path d="M0 12.75L8 17.125V9.125L0 12.75Z" fill="#393939"/>
</svg>
